<?xml version="1.0" standalone="no"?>
<!DOCTYPE svg PUBLIC "-//W3C//DTD SVG 20010904//EN"
 "http://www.w3.org/TR/2001/REC-SVG-20010904/DTD/svg10.dtd">
<svg version="1.0" xmlns="http://www.w3.org/2000/svg"
 width="500.000000pt" height="500.000000pt" viewBox="0 0 500.000000 500.000000"
 preserveAspectRatio="xMidYMid meet">

<g transform="translate(0.000000,500.000000) scale(0.100000,-0.100000)"
fill="#000000" stroke="none">
<path d="M2974 4449 c-10 -17 13 -36 27 -22 12 12 4 33 -11 33 -5 0 -12 -5
-16 -11z"/>
<path d="M1912 4379 c2 -6 8 -10 13 -10 5 0 11 4 13 10 2 6 -4 11 -13 11 -9 0
-15 -5 -13 -11z"/>
<path d="M3215 4340 c-11 -17 5 -32 21 -19 7 6 11 15 8 20 -7 12 -21 11 -29
-1z"/>
<path d="M1850 4326 c0 -9 5 -16 10 -16 6 0 10 4 10 9 0 6 -4 13 -10 16 -5 3
-10 -1 -10 -9z"/>
<path d="M3530 4255 c-10 -12 -9 -16 5 -21 23 -9 40 10 22 25 -11 9 -17 8 -27
-4z"/>
<path d="M1570 4226 c0 -8 4 -17 9 -20 11 -7 33 18 24 27 -12 12 -33 7 -33 -7z"/>
<path d="M2450 4215 c-56 -18 -132 -83 -167 -142 -21 -36 -27 -63 -31 -123 -4
-68 -1 -84 23 -139 29 -63 85 -124 146 -158 26 -14 56 -18 129 -18 86 0 100 3
142 27 59 36 113 98 132 156 21 59 20 166 0 225 -19 57 -85 126 -150 157 -58
29 -161 36 -224 15z m215 -42 c22 -11 39 -26 38 -32 -2 -5 3 -8 11 -5 19 7 67
-52 59 -73 -4 -10 -2 -14 4 -10 16 10 36 -47 31 -87 -2 -19 0 -32 4 -29 5 2 6
-6 3 -19 -4 -13 -7 -32 -9 -41 -1 -9 -5 -19 -8 -23 -4 -3 -4 -13 -1 -22 4 -9
2 -13 -4 -9 -10 7 -23 -12 -29 -41 -1 -8 -6 -17 -10 -20 -4 -4 -4 1 -1 10 4
12 2 15 -8 12 -8 -3 -11 -13 -8 -21 4 -11 2 -14 -5 -9 -7 4 -12 3 -12 -3 0
-17 -90 -60 -140 -67 -110 -14 -239 53 -279 146 -24 55 -27 132 -9 193 16 53
101 144 153 163 58 21 169 14 220 -13z"/>
<path d="M1195 4113 c-26 -37 -59 -90 -72 -119 -19 -37 -34 -54 -57 -62 -35
-12 -80 -6 -113 16 -30 19 -30 -2 -1 -22 12 -9 35 -16 50 -16 53 0 37 -18 -40
-46 -125 -44 -144 -53 -137 -63 3 -6 22 -13 43 -16 20 -3 45 -10 54 -16 10 -5
42 -9 71 -9 43 0 61 6 94 30 l41 30 20 -31 20 -32 -46 -31 c-25 -17 -48 -38
-50 -46 -3 -8 10 -2 28 14 50 42 76 49 111 30 37 -19 67 -10 75 22 7 28 6 28
47 10 35 -14 87 -69 87 -91 0 -23 18 -27 50 -10 20 10 42 14 60 10 31 -7 80
-57 80 -82 0 -12 12 -14 75 -8 65 6 79 5 95 -10 22 -20 26 -50 8 -61 -20 -13
-859 -6 -874 7 -22 18 -17 67 11 94 41 41 105 31 153 -24 l23 -26 -3 24 c-6
54 -106 88 -167 56 -66 -34 -75 -126 -15 -154 17 -8 153 -11 442 -11 466 0
462 0 462 64 0 54 -29 71 -114 68 -69 -2 -71 -1 -88 27 -24 43 -72 65 -127 58
-44 -5 -47 -4 -73 33 -18 26 -41 43 -75 55 -26 10 -57 26 -68 36 -12 10 -38
25 -59 32 l-37 13 38 24 c48 32 76 89 80 165 4 73 -3 105 -22 105 -8 0 -15 7
-15 15 0 29 -19 14 -65 -52z m23 -27 c-13 -20 -27 -36 -31 -36 -11 0 -8 6 23
52 32 47 39 32 8 -16z m55 6 c-2 -9 -16 -25 -30 -36 l-25 -18 23 40 c23 40 42
48 32 14z m0 -54 c-4 -7 -6 -20 -5 -29 3 -19 -24 -44 -58 -54 -25 -8 -25 -7
-6 13 10 12 23 19 27 16 8 -5 13 10 10 30 -2 11 19 36 31 36 5 0 6 -6 1 -12z
m-116 -76 c-39 -40 -46 -28 -17 28 20 39 22 41 35 23 12 -16 10 -22 -18 -51z
m71 -48 c-9 -9 -24 -14 -34 -12 -16 3 -14 7 11 20 35 19 46 15 23 -8z m-218
-59 c0 -9 -103 -55 -120 -55 -18 1 30 28 80 46 42 16 40 15 40 9z m249 -51
c14 -12 -19 -1 -35 12 -18 14 -18 14 6 3 14 -6 27 -13 29 -15z"/>
<path d="M3870 4166 c0 -9 -7 -16 -15 -16 -20 0 -26 -33 -22 -110 6 -93 26
-134 79 -161 47 -24 47 -23 -25 -49 -59 -21 -59 -110 0 -110 20 0 40 14 74 50
l48 51 33 -30 c29 -25 42 -29 91 -29 32 0 60 5 63 9 3 5 20 9 37 9 18 0 41 7
51 15 18 14 16 16 -25 33 -24 10 -67 27 -95 36 -28 9 -60 23 -70 31 -18 13
-17 14 14 15 39 0 95 27 86 41 -4 6 -11 6 -20 -2 -44 -36 -133 -25 -153 19
-17 36 -131 207 -142 210 -5 2 -9 -3 -9 -12z m45 -72 c15 -25 25 -48 22 -51
-5 -5 -57 78 -57 90 0 15 9 5 35 -39z m-20 -39 l28 -50 -31 30 c-17 17 -34 44
-38 60 -9 39 5 26 41 -40z m41 -102 c-5 -6 -76 29 -76 38 0 4 -3 15 -7 25 -4
12 10 5 40 -20 26 -21 46 -41 43 -43z m54 26 c12 -23 20 -43 18 -45 -2 -2 -21
10 -41 27 -30 25 -35 34 -26 45 18 22 27 17 49 -27z m-39 -77 c-19 -6 -58 7
-64 22 -5 11 2 11 35 -2 22 -9 35 -18 29 -20z m278 -88 c2 -2 -2 -4 -10 -4
-17 0 -99 37 -99 44 0 6 101 -32 109 -40z m-319 1 c0 -2 -10 -10 -22 -16 -21
-11 -22 -11 -9 4 13 16 31 23 31 12z"/>
<path d="M3543 4143 c-36 -7 -105 -83 -75 -83 4 0 20 14 35 30 24 25 37 30 73
30 36 0 50 -5 70 -27 43 -47 44 -105 1 -117 -12 -3 -100 -6 -194 -6 -161 0
-174 1 -194 21 -24 24 -18 54 19 88 31 28 82 24 118 -10 25 -23 38 -22 29 3
-9 23 -60 48 -100 48 -29 0 -45 -8 -71 -34 -19 -19 -34 -44 -34 -56 0 -24 17
-61 34 -72 6 -4 97 -8 202 -8 179 0 193 1 218 21 60 47 9 157 -79 171 -16 3
-40 3 -52 1z"/>
<path d="M1609 4120 c-19 -10 -44 -35 -54 -54 -17 -32 -24 -36 -58 -36 -47 0
-77 -15 -77 -38 0 -40 14 -42 302 -42 271 0 278 0 288 21 9 16 8 25 -6 40 -14
15 -31 19 -88 19 -70 0 -71 1 -85 30 -7 17 -29 42 -49 55 -45 31 -120 33 -173
5z m160 -27 c14 -11 32 -34 40 -51 14 -32 16 -32 85 -32 75 0 109 -11 90 -30
-7 -7 -99 -9 -275 -8 -227 3 -264 5 -264 18 0 11 14 16 58 18 48 3 57 6 57 21
0 24 27 56 65 76 38 20 108 14 144 -12z"/>
<path d="M3495 3856 c-16 -8 -36 -23 -43 -35 -11 -20 -18 -21 -76 -15 -74 8
-106 -5 -106 -41 0 -34 14 -39 110 -37 67 2 96 -2 131 -17 46 -20 120 -26 130
-9 3 5 21 11 40 12 47 4 79 15 79 28 0 6 7 5 17 -3 14 -12 14 -9 -2 16 -28 46
-45 55 -97 55 -36 0 -50 4 -57 19 -10 18 -60 42 -85 41 -6 -1 -24 -7 -41 -14z
m69 -16 c15 -5 31 -21 38 -34 9 -22 18 -25 71 -28 37 -2 62 -8 65 -15 3 -10
-46 -13 -223 -13 -177 0 -226 3 -223 13 3 8 33 13 91 15 66 2 87 6 87 17 0 14
46 55 61 55 4 0 19 -4 33 -10z"/>
<path d="M3864 3666 c-28 -7 -59 -11 -68 -10 -9 1 -19 -3 -23 -8 -3 -7 -1 -8
5 -4 7 4 12 3 12 -3 0 -5 -7 -14 -16 -19 -9 -5 -17 -13 -17 -18 -1 -5 -5 -8
-8 -7 -4 1 -5 -5 -3 -15 7 -30 -9 -44 -39 -33 -58 22 -138 -24 -152 -89 l-7
-30 -92 0 c-101 0 -116 -7 -116 -52 0 -20 6 -31 23 -37 12 -5 127 -8 254 -6
l231 2 -19 -27 c-16 -20 -20 -43 -20 -99 0 -62 4 -79 25 -112 24 -36 36 -106
20 -122 -3 -3 -29 11 -57 31 -85 60 -308 228 -367 276 -31 24 -64 46 -73 48
-15 3 -73 -35 -214 -141 -31 -23 -50 -31 -58 -25 -148 106 -263 191 -274 202
-7 7 -48 36 -90 64 -42 28 -94 66 -117 85 -23 18 -47 33 -55 33 -8 0 -91 -56
-184 -125 -249 -184 -356 -256 -368 -248 -6 3 -7 1 -3 -5 10 -16 -2 -15 -19 2
-8 7 -11 17 -7 21 4 5 2 5 -5 1 -13 -7 -98 44 -177 106 -27 22 -54 37 -60 35
-6 -3 -73 -49 -150 -103 -76 -55 -140 -98 -142 -97 -2 2 -14 -7 -28 -20 -35
-32 -123 -97 -132 -97 -4 0 -16 -7 -26 -17 -17 -15 -18 -14 -18 32 0 35 6 55
20 70 23 24 35 114 24 189 -8 62 -47 106 -93 106 -16 0 -32 -4 -35 -9 -3 -4
-17 -6 -31 -4 -17 4 -27 0 -31 -11 -6 -16 -8 -16 -25 0 -23 21 -66 21 -86 2
-21 -22 -35 -95 -27 -143 3 -22 17 -54 30 -72 22 -29 24 -41 24 -138 0 -86 -3
-107 -15 -112 -26 -9 -30 4 -33 105 -4 103 -11 122 -47 122 -37 0 -48 -25 -53
-124 -10 -192 14 -253 101 -263 l47 -6 0 -88 c0 -88 0 -89 -30 -104 -28 -15
-30 -19 -30 -75 0 -54 3 -62 24 -71 24 -11 36 -55 36 -129 0 -39 29 -60 82
-60 41 0 47 -3 58 -30 7 -17 26 -49 41 -70 23 -31 29 -51 29 -90 0 -46 2 -50
24 -50 27 0 26 2 46 -128 9 -52 17 -75 30 -82 22 -12 189 -13 207 -2 17 11 30
51 38 118 9 83 14 94 36 94 16 0 19 7 19 56 0 42 6 66 26 100 14 25 30 60 34
79 l8 35 -53 0 -52 0 18 67 c11 37 19 71 19 75 0 13 -61 8 -104 -7 -38 -13
-39 -13 -71 21 -18 19 -37 34 -43 34 -7 0 -19 -15 -28 -32 -9 -18 -18 -35 -20
-37 -1 -1 -21 5 -43 15 -27 12 -37 20 -28 26 7 4 12 34 13 82 1 63 -1 74 -14
69 -10 -4 -13 -2 -8 5 4 7 16 12 27 12 40 0 90 29 102 60 8 17 16 28 18 25 3
-3 1 17 -5 44 -11 58 -6 68 59 104 l43 24 5 -39 c3 -22 12 -47 21 -57 18 -20
20 -31 6 -31 -9 0 -108 -66 -120 -80 -3 -3 -21 -16 -42 -28 -32 -20 -55 -49
-45 -59 9 -8 76 28 141 76 77 57 106 64 106 27 0 -26 -7 -32 -114 -106 -72
-49 -98 -82 -43 -54 17 9 62 36 99 60 37 24 82 51 100 60 18 9 72 41 119 70
47 30 91 54 97 54 7 0 12 -33 14 -92 l3 -93 55 -3 c178 -9 261 191 119 285
-37 24 -52 28 -113 28 l-71 0 -3 -45 c-2 -39 -7 -48 -30 -58 -15 -6 -47 -25
-72 -41 -25 -16 -48 -30 -51 -30 -3 -1 -6 34 -7 77 l-1 78 32 10 c25 7 33 15
35 37 l3 27 808 0 809 0 6 -30 c3 -17 14 -33 23 -37 29 -11 33 -24 33 -115 l0
-87 -67 39 c-38 21 -83 41 -100 45 -28 6 -33 11 -33 36 0 26 3 29 33 29 36 0
57 15 57 41 0 24 -20 29 -125 29 -81 0 -96 -3 -104 -18 -13 -25 -2 -38 41 -46
l37 -7 3 -122 3 -122 25 0 c24 0 25 2 28 78 l3 79 26 -7 c14 -3 76 -33 137
-67 164 -89 274 -139 282 -126 4 6 2 8 -3 5 -13 -8 -46 27 -36 37 4 4 0 4 -9
1 -10 -4 -24 1 -36 12 -10 10 -25 19 -33 21 -31 8 -39 26 -39 88 0 46 4 64 13
64 27 0 50 28 56 69 l6 42 47 -30 48 -30 -2 -102 -1 -103 35 -31 c24 -23 49
-34 83 -39 34 -6 44 -10 34 -17 -10 -6 -10 -9 -1 -9 7 0 12 -13 12 -33 0 -26
-6 -36 -25 -45 -23 -11 -25 -17 -25 -78 0 -57 3 -67 20 -71 14 -4 21 -17 25
-52 19 -144 16 -141 128 -141 92 0 102 10 112 103 5 48 13 74 27 86 16 15 18
30 16 82 -3 58 -5 64 -25 67 -22 3 -23 7 -23 104 0 96 1 100 20 95 33 -9 89
12 107 40 14 21 18 57 21 187 4 150 3 163 -16 186 -17 21 -24 23 -48 15 l-29
-10 -3 -128 c-3 -127 -3 -127 -27 -127 l-24 0 -3 249 c-3 235 -4 251 -24 278
-11 15 -32 34 -45 40 -20 11 16 13 199 13 l222 0 12 26 c11 23 10 29 -11 45
-18 15 -40 19 -92 19 -66 0 -69 1 -84 31 -19 35 -74 62 -109 53 -19 -4 -26 -1
-31 17 -11 33 25 59 80 59 35 0 49 -6 74 -31 33 -33 42 -28 13 7 -40 47 -96
57 -148 25 l-32 -19 -31 38 c-23 29 -45 43 -83 55 -59 17 -57 17 -124 1z m176
-51 c17 -16 37 -50 44 -75 12 -43 15 -45 52 -48 69 -4 84 -11 101 -47 l17 -35
77 0 c76 0 110 -14 94 -40 -4 -7 -177 -10 -530 -10 -444 0 -524 2 -528 14 -11
29 20 38 113 35 85 -4 90 -3 90 16 0 27 34 81 61 95 25 14 82 5 99 -15 14 -17
30 -11 30 12 0 31 34 85 69 109 32 22 44 25 108 22 64 -3 76 -7 103 -33z
m-1438 -135 c21 -23 38 -38 38 -34 0 4 15 -9 33 -29 20 -23 42 -37 57 -38 14
0 19 -3 12 -6 -14 -5 36 -50 51 -45 5 1 7 -3 5 -10 -5 -15 51 -80 64 -72 4 3
6 9 3 14 -3 5 0 12 7 16 7 4 10 4 6 -1 -4 -4 -2 -15 5 -23 9 -13 9 -14 0 -8
-7 4 -13 3 -13 -2 0 -13 53 -59 78 -67 12 -3 22 -11 22 -16 0 -6 -6 -7 -12 -3
-7 4 -3 -3 10 -15 12 -12 26 -20 30 -17 4 2 8 -4 8 -15 0 -24 -10 -24 -66 1
-45 20 -45 20 -20 0 14 -11 33 -22 43 -26 24 -8 21 -16 -16 -40 -17 -11 -58
-37 -89 -57 -32 -20 -65 -37 -75 -37 -15 0 -15 1 1 13 16 12 14 13 -20 11 -22
-1 -65 -10 -98 -19 -60 -18 -149 -14 -364 15 -68 9 -132 38 -132 59 0 7 219
141 286 174 17 9 62 22 100 29 69 13 69 13 24 16 -50 4 -115 -10 -174 -38 -39
-19 -40 -19 -19 -1 25 21 22 31 -7 24 -11 -3 -17 -10 -13 -16 3 -6 1 -7 -5 -3
-11 6 -72 -29 -187 -107 -62 -43 -78 -42 -138 7 l-29 23 62 44 c33 24 123 89
198 144 236 173 267 194 281 195 8 0 31 -18 53 -40z m-1602 -207 c-1 -88 -2
-96 -15 -79 -25 33 -16 176 10 176 3 0 5 -44 5 -97z m137 46 c15 -56 18 -749
3 -749 -6 0 -11 137 -12 377 -2 290 -6 377 -15 381 -10 3 -13 -78 -14 -380 -1
-210 -5 -372 -9 -358 -13 39 -12 738 1 761 16 30 33 18 46 -32z m63 -365 c0
-249 -4 -384 -10 -384 -6 0 -10 92 -11 253 -1 138 -1 255 -1 258 1 4 2 65 3
138 0 74 5 128 10 125 5 -3 9 -174 9 -390z m45 281 c0 -62 -4 -98 -12 -106
-10 -11 -13 11 -13 106 0 95 3 117 13 107 8 -9 12 -45 12 -107z m2710 95 c-3
-5 -13 -10 -21 -10 -8 0 -14 5 -14 10 0 6 9 10 21 10 11 0 17 -4 14 -10z
m-2928 -52 c-2 -13 -4 -5 -4 17 -1 22 1 32 4 23 2 -10 2 -28 0 -40z m757 -6
c28 -21 76 -56 106 -78 30 -21 80 -59 110 -83 30 -24 84 -63 120 -86 104 -67
105 -74 16 -71 -41 1 -78 5 -82 9 -4 4 -16 7 -27 7 -10 0 -47 13 -81 29 -96
46 -108 47 -168 14 -29 -17 -63 -32 -75 -35 -21 -6 -22 -3 -25 75 -3 77 -5 82
-30 97 -26 14 -29 13 -47 -5 -17 -17 -21 -35 -22 -117 l-2 -96 -26 1 c-20 2
-30 -6 -46 -36 -18 -34 -67 -77 -87 -77 -5 0 -8 25 -8 55 0 42 -5 60 -20 75
-23 23 -30 24 -65 8 -24 -11 -25 -14 -25 -103 0 -90 0 -92 -22 -88 -17 3 -23
12 -24 31 -1 15 -7 53 -15 85 -13 56 -13 58 11 81 14 13 44 37 66 53 23 15 88
62 145 103 128 93 263 189 268 189 2 1 27 -16 55 -37z m1596 8 c16 -16 30 -33
30 -37 0 -4 24 -20 53 -34 28 -14 51 -30 50 -36 -1 -6 4 -17 13 -23 12 -11 13
-10 7 6 -6 16 -2 15 23 -6 16 -14 29 -29 29 -33 0 -5 15 -15 33 -23 19 -7 31
-18 27 -24 -4 -6 -3 -9 2 -8 4 1 18 -3 31 -10 17 -10 21 -18 16 -39 -5 -18 -4
-24 5 -19 6 4 9 12 6 17 -9 14 2 11 44 -10 44 -23 69 -48 46 -48 -8 0 -12 4
-9 8 2 4 -13 5 -33 2 -40 -6 -76 -30 -67 -44 3 -5 0 -9 -5 -9 -6 0 -11 7 -11
15 0 8 -7 15 -15 15 -8 0 -15 -5 -15 -11 0 -5 -4 -7 -10 -4 -5 3 -10 1 -10 -5
0 -6 -4 -9 -9 -5 -5 3 -13 0 -16 -6 -12 -19 3 -21 29 -4 34 22 53 10 29 -18
-18 -22 -18 -22 3 -4 30 25 34 22 34 -23 0 -22 -4 -40 -9 -40 -6 0 -38 23 -72
52 -34 28 -59 47 -56 41 4 -6 1 -13 -7 -16 -11 -4 -16 9 -22 56 -4 34 -8 74
-8 89 0 21 -3 25 -13 16 -9 -7 -13 -7 -13 1 0 6 10 16 23 21 12 5 16 9 10 9
-7 1 -13 9 -14 19 -1 11 -4 8 -9 -8 -7 -24 -7 -23 -15 12 -4 21 -11 36 -15 33
-5 -3 -2 -21 6 -40 8 -19 10 -36 5 -40 -5 -3 -12 1 -14 7 -4 10 -6 10 -6 0 -1
-7 5 -15 13 -18 9 -3 12 -12 8 -22 -5 -15 -4 -15 11 -3 15 12 17 12 11 -3 -3
-9 -17 -16 -30 -16 -13 0 -28 -9 -34 -19 -6 -12 -17 -17 -29 -14 -13 3 -24 -2
-33 -16 -12 -20 -20 -21 -271 -21 -152 0 -256 4 -253 9 4 5 43 35 89 66 45 31
154 110 242 175 88 65 161 119 162 119 1 1 16 -12 33 -29z m480 -67 c-1 -80
-3 -94 -12 -78 -20 34 -15 175 7 175 3 0 5 -44 5 -97z m148 85 c5 -7 13 -24
16 -38 6 -19 5 -21 -3 -10 -8 11 -11 -111 -11 -412 0 -276 -4 -428 -10 -428
-6 0 -11 157 -12 438 -2 283 -7 437 -13 437 -6 0 -11 -154 -13 -437 -1 -292
-6 -438 -13 -438 -12 0 -8 868 4 888 5 6 16 12 26 12 10 0 23 -6 29 -12z
m-1159 -21 c0 -9 -2 -8 -6 1 -2 6 -10 9 -15 6 -7 -4 -8 -2 -4 5 9 13 26 5 25
-12z m1056 -436 c0 -231 -3 -417 -7 -414 -10 5 -11 817 -1 826 3 4 7 7 7 7 1
0 1 -189 1 -419z m-975 395 c0 -2 -8 -10 -17 -17 -16 -13 -17 -12 -4 4 13 16
21 21 21 13z m1130 -412 c0 -222 -4 -404 -9 -404 -4 0 -8 184 -7 409 1 225 4
407 9 404 4 -2 7 -186 7 -409z m-1096 375 c9 14 33 3 33 -14 0 -8 -4 -15 -9
-15 -4 0 -8 8 -8 18 0 14 -2 14 -9 3 -7 -12 -13 -12 -24 -3 -7 7 -18 8 -22 4
-5 -4 -5 -1 -1 6 6 10 11 10 21 2 9 -7 15 -8 19 -1z m-1924 -311 c0 -171 -2
-309 -5 -306 -3 3 -6 133 -6 289 0 349 0 329 6 329 3 0 5 -140 5 -312z m1990
273 c0 -5 -7 -12 -16 -15 -14 -5 -15 -4 -4 9 14 17 20 19 20 6z m-2094 -63 c3
-11 5 -62 3 -112 l-4 -91 28 -3 c38 -5 34 -19 -8 -24 l-35 -4 0 108 c0 65 -4
108 -10 108 -6 0 -10 -43 -10 -107 0 -74 -3 -103 -10 -93 -15 23 -13 237 3
243 19 7 36 -3 43 -25z m718 16 c3 -9 5 -113 4 -232 l-1 -217 -9 215 c-13 290
-31 306 -26 23 1 -116 0 -215 -4 -219 -5 -4 -8 95 -8 219 0 216 1 227 19 227
10 0 22 -7 25 -16z m265 -128 c39 -18 67 -36 64 -40 -13 -12 -231 -7 -235 6
-5 13 68 67 89 68 6 0 43 -15 82 -34z m2275 18 c13 -13 16 -42 16 -159 0 -85
-4 -146 -10 -150 -6 -4 -10 41 -10 129 0 79 -4 137 -10 141 -6 4 -10 -43 -10
-134 0 -88 -4 -142 -11 -146 -6 -4 -9 0 -7 11 2 15 -4 19 -29 20 -46 0 -54 14
-10 14 l37 0 0 133 c0 90 4 137 12 145 15 15 13 15 32 -4z m-702 -41 c6 -40 1
-293 -6 -300 -3 -4 -7 68 -7 158 -2 191 -6 189 -18 -6 l-9 -140 0 131 c0 71 2
142 5 157 7 35 29 35 35 0z m-1764 -46 c3 -34 1 -37 -22 -37 -18 0 -24 4 -20
15 4 8 11 12 16 9 7 -5 9 5 6 25 -3 20 -1 30 6 28 6 -2 12 -20 14 -40z m1690
-2 c-1 -45 -11 -58 -22 -29 -11 30 -7 74 8 74 10 0 14 -13 14 -45z m-2040
-105 c2 -128 -6 -168 -38 -178 -12 -4 -11 -1 3 15 14 16 17 40 17 143 0 68 -3
120 -6 117 -4 -3 -6 -48 -5 -99 1 -51 -3 -100 -9 -108 -8 -13 -10 -12 -10 5 0
18 -6 20 -52 17 -39 -2 -49 0 -38 7 8 6 32 11 53 11 l37 0 0 93 c0 97 4 110
30 105 12 -3 15 -25 18 -128z m2392 111 c12 -24 14 -301 1 -301 -5 0 -9 6 -8
13 3 99 -5 267 -14 267 -7 0 -9 -52 -7 -165 2 -109 0 -161 -7 -154 -15 15 -19
327 -4 345 16 19 26 18 39 -5z m75 9 c3 -5 0 -10 -7 -10 -10 0 -10 -2 1 -9 9
-6 10 -11 2 -15 -6 -4 -11 -1 -12 6 0 7 -4 4 -9 -7 -7 -16 -9 -17 -9 -3 -1 9
4 20 9 23 6 4 8 11 5 16 -4 5 -2 9 4 9 5 0 13 -4 16 -10z m-2287 -80 c-2 -45
1 -63 12 -70 8 -5 11 -12 7 -16 -17 -18 -41 27 -45 86 -4 52 -2 60 13 60 14 0
16 -9 13 -60z m2012 -14 c0 -45 -18 -72 -42 -63 -8 4 -7 6 5 6 14 1 17 10 17
51 0 28 5 50 10 50 6 0 10 -20 10 -44z m-2593 8 c-3 -3 -12 -4 -19 -1 -8 3 -5
6 6 6 11 1 17 -2 13 -5z m992 -55 c36 -13 61 -53 61 -99 0 -43 -39 -80 -85
-80 l-35 0 0 88 c0 109 1 111 59 91z m1880 -66 c1 -22 -4 -33 -13 -33 -19 0
-27 37 -10 44 8 3 14 10 14 16 0 6 -4 9 -9 6 -4 -3 -6 7 -3 22 l6 27 7 -25 c4
-14 7 -40 8 -57z m281 -39 c0 -2 -9 -4 -21 -4 -11 0 -18 4 -14 10 5 8 35 3 35
-6z m-2842 -1 c-10 -2 -28 -2 -40 0 -13 2 -5 4 17 4 22 1 32 -1 23 -4z m2542
-23 c0 -5 -4 -10 -10 -10 -5 0 -10 5 -10 10 0 6 5 10 10 10 6 0 10 -4 10 -10z
m7 -56 c-3 -3 -12 -4 -19 -1 -8 3 -5 6 6 6 11 1 17 -2 13 -5z m-2592 -24 c3
-5 1 -10 -4 -10 -6 0 -11 5 -11 10 0 6 2 10 4 10 3 0 8 -4 11 -10z m-241 -82
c13 -9 182 -10 214 -2 13 4 22 14 22 26 0 10 5 16 10 13 6 -3 10 -26 10 -50 0
-40 -2 -44 -29 -50 -16 -3 -81 -5 -144 -4 l-115 3 -5 46 c-3 28 -1 48 6 52 7
4 14 0 16 -10 2 -9 8 -20 15 -24z m426 -129 c0 -47 -29 -68 -31 -21 0 15 -3
20 -6 12 -2 -8 -7 -22 -9 -30 -5 -13 -7 -12 -15 2 -7 13 -5 28 7 53 16 34 18
35 35 19 11 -9 19 -25 19 -35z m-163 6 c48 -20 71 -41 94 -87 20 -39 25 -73
10 -63 -5 3 -11 -3 -13 -12 -2 -13 -15 -1 -43 41 -22 33 -49 69 -61 82 -21 22
-38 54 -28 54 2 0 21 -7 41 -15z m297 -32 c-9 -21 -21 -50 -27 -65 -6 -15 -17
-30 -24 -32 -10 -4 -9 2 2 24 25 48 9 35 -19 -16 -14 -26 -19 -41 -11 -34 22
19 18 -4 -6 -31 -11 -13 -18 -18 -14 -11 3 6 1 12 -4 12 -6 0 -11 12 -11 28
l0 27 -21 -25 -21 -25 6 38 c7 56 43 107 90 128 23 10 49 19 59 19 16 0 16 -2
1 -37z m2285 30 c-5 -31 3 -33 121 -33 118 0 126 2 121 33 0 4 4 7 9 7 6 0 10
-22 10 -50 l0 -50 -139 0 c-153 0 -151 -1 -151 66 0 24 5 34 15 34 8 0 14 -3
14 -7z m-2593 -170 c14 -9 32 -29 40 -44 18 -36 18 -48 -1 -23 -8 10 -15 15
-15 11 0 -5 -17 2 -37 14 -35 21 -37 21 -20 3 18 -22 23 -44 9 -44 -13 0 -48
41 -67 79 l-17 34 42 -7 c23 -3 53 -14 66 -23z m379 5 c-11 -35 -45 -88 -57
-88 -6 0 -3 11 6 25 24 37 19 40 -19 11 -22 -17 -35 -22 -35 -14 -1 7 -12 0
-25 -17 -28 -34 -32 -28 -11 14 24 45 83 91 117 91 27 0 30 -3 24 -22z m-227
-58 c33 -49 30 -62 -12 -45 -27 11 -36 12 -39 2 -8 -18 -8 34 -1 61 8 29 23
24 52 -18z m17 -95 c83 -1 153 2 156 7 3 5 6 -7 7 -27 l1 -35 -176 2 -176 3
-3 33 c-2 31 -1 33 19 26 12 -4 90 -8 172 -9z"/>
<path d="M1462 3069 c2 -6 8 -10 13 -10 5 0 11 4 13 10 2 6 -4 11 -13 11 -9 0
-15 -5 -13 -11z"/>
<path d="M3446 3193 c-6 -14 -5 -15 5 -6 7 7 10 15 7 18 -3 3 -9 -2 -12 -12z"/>
<path d="M3485 3171 c-3 -5 -2 -12 3 -15 5 -3 9 1 9 9 0 17 -3 19 -12 6z"/>
<path d="M3447 3109 c4 -13 8 -18 11 -10 2 7 -1 18 -6 23 -8 8 -9 4 -5 -13z"/>
<path d="M3529 3113 c-13 -15 -12 -15 9 -4 23 12 28 21 13 21 -5 0 -15 -7 -22
-17z"/>
<path d="M3556 3075 c-3 -9 -6 -24 -5 -33 0 -9 5 -4 10 12 9 32 6 48 -5 21z"/>
<path d="M3320 3025 c-11 -13 -9 -15 15 -15 16 0 25 5 23 12 -7 19 -24 20 -38
3z"/>
<path d="M3643 3027 c0 -7 8 -13 17 -13 9 0 17 6 17 13 0 7 -8 13 -17 13 -9 0
-17 -6 -17 -13z"/>
<path d="M3605 3010 c-3 -6 1 -7 9 -4 18 7 21 14 7 14 -6 0 -13 -4 -16 -10z"/>
<path d="M3570 2993 c0 -5 8 -17 17 -28 14 -18 15 -18 9 -2 -3 10 -6 23 -6 28
0 5 -4 9 -10 9 -5 0 -10 -3 -10 -7z"/>
<path d="M3640 2970 c-22 -7 -21 -8 12 -9 20 -1 39 3 42 7 6 10 -22 11 -54 2z"/>
<path d="M1542 2830 c0 -14 2 -19 5 -12 2 6 2 18 0 25 -3 6 -5 1 -5 -13z"/>
<path d="M1536 2323 c-6 -14 -5 -15 5 -6 7 7 10 15 7 18 -3 3 -9 -2 -12 -12z"/>
<path d="M1390 2129 c0 -5 5 -7 10 -4 6 3 10 8 10 11 0 2 -4 4 -10 4 -5 0 -10
-5 -10 -11z"/>
<path d="M788 3619 l23 -27 -27 -21 c-15 -11 -22 -21 -17 -21 5 0 19 10 31 23
l22 23 -27 25 -28 24 23 -26z"/>
<path d="M675 3386 c-53 -24 -78 -60 -83 -121 -4 -54 -4 -56 41 -101 44 -43
46 -49 49 -107 l3 -62 40 0 40 0 3 66 c3 60 5 66 33 83 42 25 73 89 64 134
-18 94 -107 145 -190 108z m104 -20 c15 -8 35 -26 45 -40 18 -28 22 -92 5 -98
-5 -2 -11 -11 -13 -21 -3 -21 -53 -57 -78 -57 -35 0 -104 38 -116 64 -27 59
-7 117 49 147 42 22 71 23 108 5z m-34 -256 c-3 -5 -12 -7 -20 -3 -21 7 -19
13 6 13 11 0 18 -4 14 -10z m5 -61 c0 -26 -3 -30 -22 -27 -17 2 -24 11 -26 31
-3 23 0 27 22 27 22 0 26 -4 26 -31z"/>
<path d="M692 3323 c-80 -39 -18 -162 63 -125 37 17 51 54 35 91 -16 40 -57
54 -98 34z m59 -23 c12 -7 19 -21 19 -40 0 -24 -5 -31 -27 -36 -50 -13 -80 30
-47 67 20 22 28 23 55 9z"/>
<path d="M714 3269 c-3 -6 -1 -16 5 -22 8 -8 11 -5 11 11 0 24 -5 28 -16 11z"/>
<path d="M4160 3220 c-27 -27 -25 -56 5 -85 47 -48 125 -20 125 44 0 56 -88
83 -130 41z m84 0 c50 -19 27 -90 -28 -90 -18 0 -56 34 -56 50 0 13 37 50 49
50 5 0 21 -4 35 -10z"/>
<path d="M4388 3229 c-8 -6 3 -9 28 -9 45 0 64 -14 64 -47 0 -30 -28 -43 -89
-43 -28 0 -51 -4 -51 -10 0 -14 90 -12 119 3 56 28 42 97 -21 108 -21 3 -43 2
-50 -2z"/>
<path d="M558 3003 c-2 -4 -1 -46 2 -93 5 -84 5 -85 33 -88 39 -5 35 -35 -7
-60 -64 -38 -76 -79 -76 -256 0 -169 15 -344 32 -390 7 -17 24 -34 45 -42 36
-16 44 -34 14 -34 -22 0 -45 -25 -36 -40 4 -6 60 -10 146 -10 134 0 139 1 139
21 0 14 -10 24 -32 31 l-32 11 33 12 c19 6 40 23 49 40 9 17 19 32 22 35 6 6
8 41 16 315 l6 220 -37 43 c-20 23 -54 51 -75 62 -23 12 -40 29 -44 43 -6 24
-51 46 -65 32 -3 -4 -11 10 -17 32 -7 26 -17 39 -31 41 -25 4 -42 -33 -24 -51
8 -8 11 -5 11 12 0 44 25 15 28 -34 4 -54 -12 -82 -22 -41 -5 19 -13 26 -32
26 -25 0 -25 1 -23 75 1 43 -3 81 -8 86 -6 6 -13 7 -15 2z m177 -183 c0 -18
-33 -26 -47 -12 -6 6 -7 15 -3 22 10 16 50 8 50 -10z m48 -54 c34 -14 94 -72
85 -81 -3 -3 -78 -4 -168 -3 l-162 3 21 26 c47 60 153 86 224 55z m105 -268
l-3 -153 -177 -3 -178 -2 0 155 0 155 180 0 181 0 -3 -152z m-118 -192 c19 -1
-16 -3 -78 -4 -62 -1 -111 1 -109 6 5 6 103 6 187 -2z m-223 -63 c-2 -16 -4
-5 -4 22 0 28 2 40 4 28 2 -13 2 -35 0 -50z m299 -62 c17 -5 20 -10 14 -27 -7
-18 -19 -22 -86 -27 -145 -13 -202 -9 -214 12 -26 50 -20 52 128 50 75 -1 147
-5 158 -8z m-46 -157 c-58 -7 -210 -8 -210 -1 0 4 53 6 118 6 64 -1 106 -3 92
-5z"/>
<path d="M553 2633 c-18 -7 -18 -204 -1 -221 8 -8 57 -12 154 -12 179 0 174
-3 171 126 -2 71 -6 97 -17 104 -15 10 -285 13 -307 3z m287 -52 c0 -16 -4
-41 -10 -56 -7 -17 -7 -24 0 -20 6 4 9 -5 8 -19 -1 -15 -6 -26 -10 -26 -4 0
-8 -5 -8 -11 0 -5 5 -7 10 -4 6 3 10 1 10 -5 0 -7 -44 -10 -135 -9 l-135 1 0
89 0 89 135 0 135 0 0 -29z"/>
<path d="M2145 2838 c-3 -13 -4 -84 -3 -158 l3 -135 85 0 c82 0 85 1 88 24 5
31 -12 41 -70 41 -47 0 -48 1 -48 30 0 28 2 30 39 30 31 0 41 4 46 20 9 30 -2
40 -46 40 -37 0 -39 2 -39 30 0 31 8 35 57 31 36 -3 65 17 61 42 -3 20 -9 22
-85 25 -79 3 -83 2 -88 -20z"/>
<path d="M2413 2849 c-12 -7 -29 -27 -38 -45 -24 -50 -1 -93 66 -124 64 -30
74 -43 54 -64 -22 -21 -48 -20 -76 3 -17 14 -29 17 -41 10 -25 -13 -22 -31 8
-60 21 -19 36 -24 81 -24 48 0 58 4 79 28 25 29 32 79 14 107 -5 8 -35 29 -67
45 -41 21 -58 36 -58 50 0 24 48 34 70 15 17 -14 51 -5 58 14 15 38 -98 71
-150 45z"/>
<path d="M2616 2845 c-3 -9 -6 -79 -6 -155 0 -158 -5 -150 95 -150 79 0 95 6
95 35 0 27 -17 35 -76 35 -42 0 -44 1 -44 30 0 27 3 30 34 30 41 0 65 23 46
45 -7 8 -28 15 -46 15 -31 0 -34 3 -34 30 0 29 2 30 43 30 50 0 81 18 75 46
-3 17 -13 19 -89 22 -72 2 -88 0 -93 -13z"/>
<path d="M2844 2847 c-2 -7 -3 -78 -2 -157 l3 -145 25 0 c23 0 25 4 28 50 2
28 7 53 11 58 4 4 24 -17 45 -47 39 -57 70 -76 89 -57 12 12 10 17 -34 90 -11
19 -11 25 -1 28 18 7 42 58 42 90 0 38 -25 72 -66 89 -43 18 -133 19 -140 1z
m127 -57 c41 -23 16 -70 -38 -70 -31 0 -33 2 -33 33 0 19 3 37 7 40 10 10 42
8 64 -3z"/>
<path d="M4347 2813 c-11 -10 -8 -51 3 -58 6 -3 10 -10 10 -16 0 -18 -21 -8
-56 29 -34 35 -35 35 -18 6 11 -17 29 -43 42 -59 22 -27 23 -28 37 -9 13 17
14 17 15 2 0 -22 8 -23 32 -1 18 16 18 16 12 0 -9 -25 4 -21 31 11 27 30 31
58 11 85 -23 30 -39 19 -17 -12 18 -25 19 -30 6 -41 -12 -10 -16 -8 -24 12
-17 46 -62 73 -84 51z m63 -60 c0 -19 -14 -16 -35 7 -11 12 -15 26 -11 37 7
16 9 15 26 -7 11 -14 20 -31 20 -37z"/>
<path d="M3355 2790 c-3 -5 1 -10 10 -10 9 0 13 5 10 10 -3 6 -8 10 -10 10 -2
0 -7 -4 -10 -10z"/>
<path d="M4209 2577 c-34 -28 -41 -51 -24 -74 10 -12 14 -46 15 -100 0 -49 4
-83 10 -83 6 0 10 37 10 90 0 71 -3 91 -16 98 -9 5 -14 18 -12 28 3 18 14 19
193 19 190 0 190 0 193 -23 2 -13 -3 -25 -12 -28 -9 -3 -16 -16 -16 -29 0 -21
-26 -42 -37 -31 -8 8 8 27 17 21 4 -3 7 3 6 12 -2 9 -9 19 -17 21 -11 3 -11 2
-1 -6 10 -7 10 -11 -1 -21 -11 -9 -17 -8 -28 6 -8 9 -9 14 -3 10 6 -3 11 0 11
7 0 7 -5 13 -11 12 -6 0 -30 5 -54 12 -37 11 -47 11 -87 -7 -34 -15 -49 -29
-60 -55 -29 -70 -13 -143 35 -155 8 -2 51 -4 95 -5 76 -2 81 -1 108 27 19 21
27 25 27 13 0 -9 5 -16 10 -16 6 0 10 33 10 78 1 52 5 83 15 96 21 28 19 49
-10 80 -19 21 -33 26 -70 26 -25 0 -45 -4 -45 -10 0 -6 -33 -10 -79 -10 -44 0
-83 5 -86 10 -11 18 -59 11 -86 -13z m238 -99 c12 -6 25 -18 28 -27 4 -10 -2
-8 -18 7 -34 32 -81 29 -118 -7 -18 -19 -29 -24 -29 -15 0 18 33 47 63 55 24
6 39 3 74 -13z m-13 -34 c19 -18 21 -55 4 -72 -34 -34 -102 4 -91 49 10 35 62
49 87 23z"/>
<path d="M4385 2416 c-16 -12 -18 -17 -7 -28 15 -15 47 0 47 22 0 20 -18 22
-40 6z"/>
<path d="M4255 2530 c-3 -5 1 -10 9 -10 9 0 16 5 16 10 0 6 -4 10 -9 10 -6 0
-13 -4 -16 -10z"/>
<path d="M3796 2492 c-7 -12 12 -38 21 -28 4 5 2 11 -5 13 -6 3 -10 9 -6 14 3
5 3 9 0 9 -3 0 -7 -4 -10 -8z"/>
<path d="M1580 2480 c0 -5 7 -10 15 -10 8 0 15 5 15 10 0 6 -7 10 -15 10 -8 0
-15 -4 -15 -10z"/>
<path d="M1865 2465 c-68 -67 24 -177 101 -121 26 20 6 43 -24 27 -25 -14 -49
-5 -57 20 -14 44 22 78 60 57 27 -16 46 9 21 28 -30 22 -74 17 -101 -11z"/>
<path d="M2065 2465 c-71 -70 29 -179 106 -116 18 14 24 29 24 61 0 32 -6 47
-24 61 -32 27 -77 24 -106 -6z m74 -15 c36 -19 36 -61 0 -81 -46 -24 -86 54
-41 80 21 13 20 13 41 1z"/>
<path d="M2280 2409 l0 -82 50 5 c58 6 79 26 80 76 0 48 -37 82 -90 82 l-40 0
0 -81z m78 35 c37 -26 27 -67 -21 -79 -26 -7 -27 -6 -27 37 0 61 9 69 48 42z"/>
<path d="M2494 2476 c-3 -7 -4 -42 -2 -77 l3 -64 58 -3 c46 -2 57 0 57 13 0
11 -11 15 -40 15 -47 0 -58 27 -13 32 39 4 42 28 4 28 -24 0 -31 4 -31 20 0
17 7 20 40 20 29 0 40 4 40 15 0 20 -108 22 -116 1z"/>
<path d="M2696 2464 c-4 -15 -4 -51 0 -80 l6 -54 59 0 c46 0 59 3 59 15 0 11
-12 15 -45 15 -33 0 -45 4 -45 15 0 10 10 15 30 15 20 0 30 5 30 15 0 10 -10
15 -30 15 -23 0 -30 4 -30 20 0 17 7 20 45 20 33 0 45 4 45 15 0 12 -13 15
-59 15 -55 0 -59 -2 -65 -26z"/>
<path d="M2900 2410 c0 -64 3 -80 15 -80 9 0 15 9 15 25 0 34 32 33 50 0 14
-27 48 -30 41 -4 -3 8 -4 25 -3 39 5 64 3 75 -14 87 -10 7 -37 13 -61 13 l-43
0 0 -80z m79 41 c21 -13 5 -41 -24 -41 -18 0 -25 5 -25 18 0 31 21 41 49 23z"/>
<path d="M3132 2483 c-7 -2 -17 -13 -22 -24 -16 -29 4 -57 45 -65 20 -3 35
-12 35 -20 0 -16 -23 -18 -50 -4 -13 7 -21 6 -30 -5 -25 -31 74 -50 104 -19
29 29 19 53 -30 74 -52 23 -51 44 2 34 26 -5 34 -3 34 9 0 23 -51 35 -88 20z"/>
<path d="M3450 2480 c0 -5 7 -10 15 -10 8 0 15 5 15 10 0 6 -7 10 -15 10 -8 0
-15 -4 -15 -10z"/>
<path d="M3695 2480 c3 -5 11 -10 16 -10 6 0 7 5 4 10 -3 6 -11 10 -16 10 -6
0 -7 -4 -4 -10z"/>
<path d="M1560 2462 c0 -6 9 -12 20 -15 11 -3 20 -3 20 -1 0 2 -9 8 -20 14
-11 6 -20 7 -20 2z"/>
<path d="M3437 2459 c7 -7 15 -10 18 -7 3 3 -2 9 -12 12 -14 6 -15 5 -6 -5z"/>
<path d="M3484 2454 c-18 -14 -18 -15 4 -4 12 6 22 13 22 15 0 8 -5 6 -26 -11z"/>
<path d="M3768 2453 c7 -3 16 -2 19 1 4 3 -2 6 -13 5 -11 0 -14 -3 -6 -6z"/>
<path d="M3544 2376 c-3 -13 -4 -38 -2 -57 3 -29 0 -33 -27 -40 -47 -13 -56
-44 -45 -168 5 -58 14 -204 21 -324 11 -198 14 -219 31 -228 32 -17 120 -22
165 -10 51 14 47 -7 69 380 17 316 16 335 -31 347 -22 5 -25 11 -25 53 0 26
-5 52 -12 59 -7 7 -39 12 -75 12 -58 0 -63 -2 -69 -24z m117 4 c14 -8 19 -21
19 -48 0 -37 -1 -38 -35 -34 -26 3 -36 10 -44 31 l-9 26 -1 -32 c-1 -18 -5
-33 -11 -33 -11 0 -14 83 -3 93 10 11 62 8 84 -3z m-116 -137 c8 -10 32 -18
69 -21 48 -4 60 -1 79 16 14 14 27 18 36 13 10 -7 8 -12 -10 -25 -43 -30 -209
-14 -209 19 0 20 20 19 35 -2z m140 7 c-3 -5 -30 -10 -60 -10 -30 0 -57 5 -60
10 -4 6 18 10 60 10 42 0 64 -4 60 -10z m-58 -54 c53 0 87 5 97 14 19 15 35 5
18 -12 -6 -6 -49 -14 -96 -16 -88 -5 -150 8 -160 34 -4 12 1 11 27 -3 23 -12
55 -17 114 -17z m11 -43 c-10 -2 -26 -2 -35 0 -10 3 -2 5 17 5 19 0 27 -2 18
-5z m101 -18 c-6 -5 -59 -10 -119 -10 -60 0 -114 5 -119 10 -7 7 33 10 119 10
86 0 126 -3 119 -10z m-198 -47 c1 -7 1 -16 0 -20 0 -3 12 -3 27 1 15 4 50 5
77 1 28 -4 46 -8 42 -9 -5 0 -5 -7 0 -13 12 -18 13 -120 1 -141 -8 -15 -21
-17 -84 -16 l-74 2 0 36 c0 20 -3 66 -7 104 -4 47 -3 67 6 67 6 0 12 -6 12
-12z m194 -105 c-4 -47 -9 -82 -12 -79 -3 2 -1 49 3 103 4 54 10 89 12 79 2
-11 1 -57 -3 -103z m-158 101 c-3 -3 -12 -4 -19 -1 -8 3 -5 6 6 6 11 1 17 -2
13 -5z m-70 -136 c-2 -24 -4 -7 -4 37 0 44 2 63 4 43 2 -21 2 -57 0 -80z m93
-87 c36 -7 39 -9 15 -10 -17 -1 -45 3 -63 8 l-32 10 5 -102 c3 -76 2 -91 -5
-57 -5 25 -9 73 -9 108 -1 60 0 62 22 57 12 -3 42 -9 67 -14z m35 -61 c-3 -5
-11 -10 -16 -10 -6 0 -7 5 -4 10 3 6 11 10 16 10 6 0 7 -4 4 -10z m3 -170 l73
0 -3 -27 c-3 -23 -9 -29 -45 -36 -22 -4 -63 -4 -90 0 -45 8 -48 10 -51 42 -3
31 -2 33 20 27 13 -3 56 -6 96 -6z"/>
<path d="M1660 2375 c-10 -12 -10 -15 4 -15 9 0 16 7 16 15 0 8 -2 15 -4 15
-2 0 -9 -7 -16 -15z"/>
<path d="M3385 2380 c-3 -5 1 -10 10 -10 9 0 13 5 10 10 -3 6 -8 10 -10 10 -2
0 -7 -4 -10 -10z"/>
<path d="M4287 2282 c-26 -2 -45 -7 -42 -13 8 -12 292 -12 300 1 4 6 -8 10
-27 11 -18 0 -67 1 -108 2 -41 1 -96 1 -123 -1z"/>
<path d="M1895 2240 c-18 -19 -17 -32 22 -370 l40 -350 -43 -178 c-44 -179
-54 -268 -32 -290 9 -9 169 -12 658 -12 614 0 648 1 663 18 26 28 21 78 -25
271 -22 97 -41 187 -41 201 0 14 8 88 16 165 9 77 26 228 38 335 l21 194 -22
18 c-21 17 -60 18 -650 18 -614 0 -627 0 -645 -20z m1263 -6 c20 -6 22 -12 20
-63 l-1 -56 -6 50 -6 50 -614 3 c-389 1 -618 -1 -626 -8 -9 -7 -8 -32 2 -107
7 -54 23 -195 36 -313 l22 -215 565 -5 565 -5 -570 0 -570 0 -3 35 c-2 19 -18
166 -37 325 -32 269 -33 291 -18 303 13 9 149 12 618 12 330 0 610 -3 623 -6z
m-42 -166 c-4 -57 -17 -184 -29 -283 l-22 -180 -526 -3 -527 -2 -5 22 c-3 13
-11 75 -17 138 -6 63 -18 174 -26 247 -8 73 -14 139 -14 148 0 13 64 15 586
15 l587 0 -7 -102z m51 -20 c-2 -13 -4 -5 -4 17 -1 22 1 32 4 23 2 -10 2 -28
0 -40z m-10 -80 c-2 -13 -4 -5 -4 17 -1 22 1 32 4 23 2 -10 2 -28 0 -40z m-10
-90 c-3 -7 -5 -2 -5 12 0 14 2 19 5 13 2 -7 2 -19 0 -25z m-10 -95 c-3 -10 -5
-2 -5 17 0 19 2 27 5 18 2 -10 2 -26 0 -35z m-10 -90 c-3 -10 -5 -4 -5 12 0
17 2 24 5 18 2 -7 2 -21 0 -30z m-10 -95 c-3 -7 -5 -2 -5 12 0 14 2 19 5 13 2
-7 2 -19 0 -25z m0 -93 c2 0 20 -80 42 -176 35 -158 38 -175 23 -186 -23 -19
-1250 -19 -1275 0 -16 11 -15 24 25 190 l42 177 48 0 c26 0 48 -4 48 -10 0 -7
161 -10 464 -10 384 0 468 2 492 14 22 12 76 13 91 1z m-564 -423 c431 2 643
0 636 -7 -12 -12 -1216 -19 -1262 -7 -17 4 -32 14 -35 22 -3 12 -1 12 6 2 7
-10 139 -12 655 -10z"/>
<path d="M2070 1455 c0 -12 13 -15 55 -15 42 0 55 3 55 15 0 12 -13 15 -55 15
-42 0 -55 -3 -55 -15z"/>
<path d="M2190 1455 c0 -10 10 -15 30 -15 20 0 30 5 30 15 0 10 -10 15 -30 15
-20 0 -30 -5 -30 -15z"/>
<path d="M2260 1454 c0 -11 8 -14 27 -12 39 4 42 28 4 28 -21 0 -31 -5 -31
-16z"/>
<path d="M2330 1455 c0 -18 41 -20 58 -3 9 9 12 9 12 0 0 -18 112 -12 118 6 3
9 -20 12 -92 12 -79 0 -96 -3 -96 -15z"/>
<path d="M2530 1455 c0 -9 9 -15 25 -15 16 0 25 6 25 15 0 9 -9 15 -25 15 -16
0 -25 -6 -25 -15z"/>
<path d="M2596 1455 c4 -8 17 -15 30 -15 15 0 24 6 24 15 0 10 -10 15 -30 15
-22 0 -28 -4 -24 -15z"/>
<path d="M2660 1454 c0 -11 8 -14 27 -12 39 4 42 28 4 28 -21 0 -31 -5 -31
-16z"/>
<path d="M2730 1454 c0 -10 7 -14 22 -12 32 5 35 28 4 28 -17 0 -26 -5 -26
-16z"/>
<path d="M2790 1454 c0 -11 8 -14 27 -12 39 4 42 28 4 28 -21 0 -31 -5 -31
-16z"/>
<path d="M2860 1455 c0 -12 16 -15 80 -15 64 0 80 3 80 15 0 12 -16 15 -80 15
-64 0 -80 -3 -80 -15z"/>
<path d="M1990 1443 c0 -10 -3 -29 -6 -43 -4 -18 -3 -21 4 -10 15 25 23 70 12
70 -5 0 -10 -8 -10 -17z"/>
<path d="M3087 1428 c3 -18 10 -37 16 -43 6 -7 8 -2 3 15 -3 14 -6 33 -6 43 0
9 -4 17 -10 17 -5 0 -7 -14 -3 -32z"/>
<path d="M2060 1415 c0 -10 11 -15 35 -15 24 0 35 5 35 15 0 10 -11 15 -35 15
-24 0 -35 -5 -35 -15z"/>
<path d="M2157 1423 c-15 -15 -5 -22 28 -21 43 2 49 28 7 28 -16 0 -32 -3 -35
-7z"/>
<path d="M2230 1416 c0 -11 10 -16 31 -16 38 0 35 24 -4 28 -19 2 -27 -1 -27
-12z"/>
<path d="M2300 1414 c0 -10 7 -14 22 -12 32 5 35 28 4 28 -17 0 -26 -5 -26
-16z"/>
<path d="M2367 1423 c-15 -14 -6 -23 23 -23 20 0 30 5 30 15 0 15 -40 21 -53
8z"/>
<path d="M2437 1423 c-14 -13 -6 -23 18 -23 16 0 25 6 25 15 0 15 -31 21 -43
8z"/>
<path d="M2497 1424 c-4 -4 -7 -11 -7 -16 0 -13 50 -6 53 7 2 12 -36 19 -46 9z"/>
<path d="M2567 1423 c-15 -14 -6 -24 20 -21 34 4 43 28 11 28 -14 0 -28 -3
-31 -7z"/>
<path d="M2630 1415 c0 -11 7 -15 23 -13 12 2 22 8 22 13 0 6 -10 11 -22 13
-16 2 -23 -2 -23 -13z"/>
<path d="M2697 1424 c-15 -15 -6 -24 24 -24 20 0 29 4 27 13 -5 14 -40 21 -51
11z"/>
<path d="M2766 1422 c-16 -15 2 -19 89 -19 65 0 94 4 92 11 -4 11 -171 19
-181 8z"/>
<path d="M2960 1416 c0 -12 10 -16 36 -16 45 0 42 24 -4 28 -24 2 -32 -1 -32
-12z"/>
<path d="M2057 1383 c-19 -18 1 -23 89 -23 72 0 95 3 92 13 -6 16 -48 22 -48
6 0 -10 -3 -10 -12 -1 -13 13 -110 17 -121 5z"/>
<path d="M2257 1384 c-15 -15 -6 -24 24 -24 20 0 29 4 27 13 -5 14 -40 21 -51
11z"/>
<path d="M2325 1382 c-14 -15 0 -20 55 -21 44 0 60 4 60 14 0 10 -15 13 -55
13 -30 0 -57 -3 -60 -6z"/>
<path d="M2457 1384 c-15 -15 -6 -24 24 -24 20 0 29 4 27 13 -5 14 -40 21 -51
11z"/>
<path d="M2527 1384 c-15 -15 -6 -24 24 -24 20 0 29 4 27 13 -5 14 -40 21 -51
11z"/>
<path d="M2590 1376 c0 -11 9 -16 26 -16 31 0 28 23 -4 28 -15 2 -22 -2 -22
-12z"/>
<path d="M2650 1376 c0 -11 9 -16 26 -16 31 0 28 23 -4 28 -15 2 -22 -2 -22
-12z"/>
<path d="M2716 1383 c-14 -15 -3 -23 30 -23 24 0 34 4 32 12 -5 13 -52 21 -62
11z"/>
<path d="M2790 1376 c0 -11 9 -16 26 -16 31 0 28 23 -4 28 -15 2 -22 -2 -22
-12z"/>
<path d="M2850 1376 c0 -11 10 -16 31 -16 38 0 35 24 -4 28 -19 2 -27 -1 -27
-12z"/>
<path d="M2920 1375 c0 -12 13 -15 55 -15 42 0 55 3 55 15 0 12 -13 15 -55 15
-42 0 -55 -3 -55 -15z"/>
<path d="M2050 1335 c0 -11 12 -15 50 -15 38 0 50 4 50 15 0 11 -12 15 -50 15
-38 0 -50 -4 -50 -15z"/>
<path d="M2160 1335 c0 -9 9 -15 25 -15 16 0 25 6 25 15 0 9 -9 15 -25 15 -16
0 -25 -6 -25 -15z"/>
<path d="M2220 1335 c0 -11 7 -15 23 -13 12 2 22 8 22 13 0 6 -10 11 -22 13
-16 2 -23 -2 -23 -13z"/>
<path d="M2280 1335 c0 -10 10 -15 30 -15 20 0 30 5 30 15 0 10 -10 15 -30 15
-20 0 -30 -5 -30 -15z"/>
<path d="M2350 1335 c0 -9 9 -15 25 -15 16 0 25 6 25 15 0 9 -9 15 -25 15 -16
0 -25 -6 -25 -15z"/>
<path d="M2410 1335 c0 -9 9 -15 25 -15 16 0 25 6 25 15 0 9 -9 15 -25 15 -16
0 -25 -6 -25 -15z"/>
<path d="M2477 1343 c-15 -15 -5 -23 28 -23 24 0 35 5 35 15 0 15 -50 22 -63
8z"/>
<path d="M2550 1335 c0 -19 56 -21 63 -2 4 10 6 10 6 0 1 -19 51 -16 51 2 0
12 -13 15 -60 15 -47 0 -60 -3 -60 -15z"/>
<path d="M2686 1335 c4 -8 17 -15 30 -15 15 0 24 6 24 15 0 10 -10 15 -30 15
-22 0 -28 -4 -24 -15z"/>
<path d="M2750 1336 c0 -10 15 -14 60 -14 45 0 60 4 60 14 0 10 -15 14 -60 14
-45 0 -60 -4 -60 -14z"/>
<path d="M2886 1335 c4 -8 17 -15 30 -15 15 0 24 6 24 15 0 10 -10 15 -30 15
-22 0 -28 -4 -24 -15z"/>
<path d="M2950 1335 c0 -11 12 -15 45 -15 33 0 45 4 45 15 0 11 -12 15 -45 15
-33 0 -45 -4 -45 -15z"/>
<path d="M2754 1301 c-2 -2 -4 -10 -4 -18 0 -9 17 -13 60 -13 45 0 60 4 60 14
0 10 -16 15 -56 18 -31 1 -58 1 -60 -1z"/>
<path d="M2036 1285 c-4 -13 9 -15 84 -15 73 0 90 3 90 15 0 12 -16 15 -84 15
-65 0 -85 -3 -90 -15z"/>
<path d="M2227 1293 c-15 -14 -6 -23 23 -23 20 0 30 5 30 15 0 15 -40 21 -53
8z"/>
<path d="M2296 1285 c4 -8 17 -15 30 -15 17 0 22 4 18 15 -4 8 -17 15 -30 15
-17 0 -22 -4 -18 -15z"/>
<path d="M2360 1285 c0 -18 -16 -17 200 -16 151 0 175 2 178 15 3 14 -20 16
-187 16 -163 0 -191 -2 -191 -15z"/>
<path d="M2890 1285 c0 -9 9 -15 25 -15 16 0 25 6 25 15 0 9 -9 15 -25 15 -16
0 -25 -6 -25 -15z"/>
<path d="M2950 1285 c0 -11 12 -15 50 -15 38 0 50 4 50 15 0 11 -12 15 -50 15
-38 0 -50 -4 -50 -15z"/>
<path d="M2357 1244 c-3 -3 -3 -12 0 -20 4 -11 41 -14 189 -14 177 0 184 1
184 20 0 19 -7 20 -183 20 -101 0 -186 -3 -190 -6z"/>
<path d="M3090 1225 c0 -8 5 -15 10 -15 6 0 10 7 10 15 0 8 -4 15 -10 15 -5 0
-10 -7 -10 -15z"/>
<path d="M1970 1219 c0 -5 5 -7 10 -4 6 3 10 8 10 11 0 2 -4 4 -10 4 -5 0 -10
-5 -10 -11z"/>
<path d="M4230 2191 c-5 -11 -10 -58 -10 -105 0 -117 -1 -116 165 -116 164 0
165 1 165 127 0 73 -2 83 -22 97 -31 22 -158 23 -158 1 0 -8 -4 -15 -9 -15 -5
0 -11 7 -15 15 -9 24 -102 21 -116 -4z m50 -1 c0 -5 -7 -10 -16 -10 -8 0 -12
5 -9 10 3 6 10 10 16 10 5 0 9 -4 9 -10z m40 0 c0 -5 -4 -10 -10 -10 -5 0 -10
5 -10 10 0 6 5 10 10 10 6 0 10 -4 10 -10z m103 -7 c-7 -2 -19 -2 -25 0 -7 3
-2 5 12 5 14 0 19 -2 13 -5z m64 1 c-3 -3 -12 -4 -19 -1 -8 3 -5 6 6 6 11 1
17 -2 13 -5z m-9 -23 c49 -1 53 -3 50 -23 -4 -32 -52 -36 -89 -9 -35 26 -66
26 -104 1 -16 -11 -45 -20 -62 -20 -28 0 -33 4 -33 25 0 23 3 24 73 27 39 2
81 2 92 2 11 -1 44 -2 73 -3z m-200 -78 c-24 -4 -27 -10 -31 -46 l-4 -42 -1
48 -2 47 33 -1 c29 -2 29 -2 5 -6z m112 -8 c0 -8 -7 -15 -15 -15 -8 0 -15 7
-15 15 0 8 7 15 15 15 8 0 15 -7 15 -15z m113 8 c-7 -2 -19 -2 -25 0 -7 3 -2
5 12 5 14 0 19 -2 13 -5z"/>
<path d="M920 2133 c0 -6 7 -13 15 -17 8 -3 15 -13 15 -23 0 -10 5 -25 10 -33
8 -11 9 -8 6 14 -5 29 -46 82 -46 59z"/>
<path d="M1727 2103 c-11 -11 -8 -48 5 -61 15 -15 138 -16 138 -2 0 6 -26 10
-57 10 -59 0 -94 12 -80 27 5 4 36 13 70 19 l62 12 -66 1 c-36 0 -69 -2 -72
-6z"/>
<path d="M3265 2100 c3 -5 26 -10 50 -10 24 0 47 -5 50 -10 9 -15 25 -2 18 15
-4 11 -22 15 -65 15 -37 0 -57 -4 -53 -10z"/>
<path d="M1045 2040 c-3 -5 1 -10 9 -10 9 0 16 5 16 10 0 6 -4 10 -9 10 -6 0
-13 -4 -16 -10z"/>
<path d="M3302 1978 c-7 -7 -12 -20 -12 -29 0 -9 -9 -19 -20 -22 -20 -5 -20
-12 -18 -199 l3 -193 27 -3 c22 -3 30 2 37 21 9 23 58 45 84 39 4 -1 7 19 8
46 0 26 2 108 4 182 1 74 -2 143 -7 153 -10 20 -87 24 -106 5z m79 -8 c32 -17
23 -47 -20 -69 l-39 -20 -6 31 c-9 47 -8 56 12 61 28 8 33 7 53 -3z m-86 -238
c0 -106 -4 -173 -10 -174 -6 -2 -11 63 -13 175 -2 141 0 178 10 175 10 -4 13
-46 13 -176z m105 143 c0 -14 -48 -45 -70 -45 -22 0 -8 27 23 43 41 20 47 20
47 2z m0 -59 c0 -18 -19 -33 -53 -41 -39 -10 -36 17 6 38 40 20 47 20 47 3z
m0 -56 c0 -10 -58 -50 -72 -50 -19 0 -5 31 20 44 32 18 52 20 52 6z m0 -55 c0
-14 -54 -55 -72 -55 -23 0 -3 32 30 49 45 25 42 24 42 6z m-6 -69 c-6 -16 -62
-42 -70 -33 -9 9 6 28 30 37 32 13 46 12 40 -4z"/>
<path d="M1681 1946 c-77 -82 48 -204 132 -129 11 10 17 31 17 55 0 82 -97
130 -149 74z m107 -22 c21 -24 30 -73 15 -88 -8 -8 -103 84 -103 100 0 32 54
24 88 -12z m-18 -101 c0 -2 -11 -3 -25 -3 -33 0 -65 33 -65 67 0 27 0 27 45
-17 25 -24 45 -45 45 -47z"/>
<path d="M557 1944 c-4 -4 -2 -13 4 -21 9 -10 53 -13 194 -13 l183 0 16 -25
c11 -17 26 -25 44 -25 26 0 114 29 127 42 4 3 -24 16 -61 28 -56 19 -73 21
-99 11 -40 -14 -377 -15 -391 -1 -6 6 -13 7 -17 4z m472 -23 c21 -13 4 -31
-30 -31 -22 0 -29 5 -29 20 0 21 33 28 59 11z"/>
<path d="M4073 1904 c-3 -8 2 -23 11 -32 15 -15 17 -15 33 0 13 14 14 20 3 32
-16 20 -39 20 -47 0z"/>
<path d="M3847 1900 c-14 -38 -16 -78 -18 -255 -1 -130 3 -200 11 -220 l12
-30 14 30 c18 42 19 371 0 440 -8 29 -16 44 -19 35z m9 -78 c-11 -10 -15 4 -8
28 l7 25 3 -23 c2 -13 1 -26 -2 -30z m4 -187 c0 -103 -4 -165 -10 -165 -6 0
-10 62 -10 165 0 103 4 165 10 165 6 0 10 -62 10 -165z"/>
<path d="M3930 1859 c-16 -73 -10 -423 7 -440 7 -7 16 -9 20 -5 13 13 10 473
-4 487 -8 8 -14 -2 -23 -42z m30 -25 c0 -8 -4 -14 -10 -14 -5 0 -10 9 -10 21
0 11 5 17 10 14 6 -3 10 -13 10 -21z m-13 -287 c-1 -45 -3 -5 -3 88 0 94 2
130 3 82 2 -48 2 -125 0 -170z"/>
<path d="M4422 1868 c-21 -21 -14 -57 14 -70 23 -11 29 -10 45 11 17 21 18 26
6 45 -17 25 -47 32 -65 14z m42 -7 c3 -5 -3 -11 -14 -14 -20 -5 -26 3 -13 16
9 10 21 9 27 -2z"/>
<path d="M624 1826 c-26 -26 -34 -42 -34 -70 0 -48 23 -90 59 -112 21 -13 31
-27 33 -48 3 -28 7 -31 40 -34 45 -4 78 12 78 38 0 34 -28 50 -85 50 -47 0
-56 3 -79 31 -48 56 -28 137 39 159 44 14 76 -2 128 -64 l37 -45 0 -260 0
-261 194 0 c192 0 194 0 200 23 3 12 6 133 6 269 0 234 -1 248 -19 258 -12 6
-95 10 -202 10 l-182 0 -48 45 c-41 38 -54 45 -90 45 -33 0 -47 -6 -75 -34z
m248 -326 l-3 -250 138 -1 c76 -1 149 -5 163 -9 14 -4 -48 -7 -140 -6 l-165 1
-3 258 c-1 141 1 257 5 257 5 0 7 -112 5 -250z m205 230 c-60 -3 -128 -3 -150
1 -24 4 22 6 108 6 l150 0 -108 -7z m130 -367 c-1 -71 -3 -13 -3 127 0 140 2
198 3 128 2 -71 2 -185 0 -255z m-49 165 c2 -137 1 -149 -18 -168 -14 -14 -33
-20 -62 -20 -28 0 -64 -11 -102 -30 -32 -16 -62 -27 -67 -24 -5 3 -9 93 -9
200 l0 195 128 -3 127 -3 3 -147z m-383 77 c0 -16 -8 -21 -37 -23 -35 -3 -38
-1 -38 23 0 24 3 26 38 23 29 -2 37 -7 37 -23z"/>
<path d="M4213 1845 c-17 -7 -33 -20 -36 -29 -4 -9 -14 -16 -24 -16 -15 0 -16
-2 -3 -10 13 -9 13 -11 0 -20 -13 -8 -12 -10 4 -10 15 0 16 -3 6 -15 -9 -10
-9 -15 -1 -15 6 0 11 -6 11 -13 0 -8 9 -22 20 -32 17 -16 20 -35 24 -209 4
-186 4 -208 2 -291 -1 -35 2 -40 22 -43 22 -3 23 -1 22 75 0 43 2 108 5 146
l7 67 42 0 c52 0 66 13 66 61 0 44 -13 57 -65 61 l-40 3 -3 51 c-3 45 0 54 22
72 14 10 23 22 20 25 -3 3 -2 12 2 19 16 25 9 73 -14 100 -30 33 -51 39 -89
23z m35 -24 c-6 -10 -22 -18 -34 -17 -21 1 -21 2 -7 19 9 9 24 17 35 17 15 0
16 -3 6 -19z m117 -311 c13 -41 -3 -60 -51 -60 l-44 0 0 40 0 40 44 0 c36 0
46 -4 51 -20z m-128 -337 c-3 -10 -5 -4 -5 12 0 17 2 24 5 18 2 -7 2 -21 0
-30z"/>
<path d="M690 1760 c-17 -17 -18 -24 -10 -41 16 -29 38 -34 60 -14 25 22 25
37 2 58 -24 22 -28 21 -52 -3z m47 -34 c-8 -20 -36 -21 -43 -1 -4 8 0 22 7 31
11 13 14 13 27 0 8 -8 12 -22 9 -30z"/>
<path d="M4011 1483 c1 -280 1 -290 26 -371 30 -97 48 -104 70 -27 23 82 26
142 18 420 l-7 265 -54 0 -54 0 1 -287z m59 202 c0 -51 3 -65 15 -65 10 0 15
-10 15 -34 0 -26 -4 -33 -17 -32 -12 0 -19 -7 -21 -21 -2 -13 -10 -23 -18 -23
-11 0 -14 23 -14 120 0 113 1 120 20 120 18 0 20 -7 20 -65z m30 10 c0 -30 -4
-55 -10 -55 -5 0 -10 25 -10 55 0 30 5 55 10 55 6 0 10 -25 10 -55z m-15 -575
c18 -8 17 -9 -7 -9 -16 -1 -28 4 -28 9 0 12 8 12 35 0z"/>
<path d="M4390 1681 c-7 -15 -6 -24 6 -36 9 -9 21 -14 27 -12 18 6 31 33 24
51 -9 22 -44 20 -57 -3z m40 -5 c0 -3 -4 -8 -10 -11 -5 -3 -10 -1 -10 4 0 6 5
11 10 11 6 0 10 -2 10 -4z"/>
<path d="M1630 1637 c0 -18 -4 -37 -10 -43 -15 -15 0 -144 16 -144 8 0 14 -7
14 -15 0 -8 -7 -15 -15 -15 -20 0 -19 -39 0 -47 23 -8 26 -2 32 63 9 92 7 158
-6 162 -6 2 -11 19 -11 38 0 19 -4 34 -10 34 -5 0 -10 -15 -10 -33z m17 -114
c-3 -10 -5 -2 -5 17 0 19 2 27 5 18 2 -10 2 -26 0 -35z"/>
<path d="M1373 1620 c-3 -11 -14 -20 -24 -20 -16 0 -19 -8 -19 -50 0 -36 4
-52 15 -56 8 -4 15 -15 15 -25 0 -12 7 -19 20 -19 16 0 20 -7 20 -35 0 -32 2
-35 29 -35 31 0 34 5 45 72 5 28 12 37 29 40 19 3 22 9 22 53 0 44 -3 50 -21
53 -12 2 -24 12 -27 23 -7 26 -27 24 -28 -3 l0 -23 -10 23 c-10 25 -29 21 -30
-6 0 -12 -3 -11 -9 6 -11 27 -20 28 -27 2z m127 -50 c0 -6 -30 -10 -69 -10
-39 0 -73 5 -76 10 -4 6 22 10 69 10 44 0 76 -4 76 -10z m0 -40 c0 -6 -32 -10
-75 -10 -43 0 -75 4 -75 10 0 6 32 10 75 10 43 0 75 -4 75 -10z m-52 -52 c-6
-18 -28 -21 -28 -4 0 9 7 16 16 16 9 0 14 -5 12 -12z m-8 -48 c0 -11 -4 -20
-10 -20 -5 0 -10 9 -10 20 0 11 5 20 10 20 6 0 10 -9 10 -20z"/>
<path d="M1816 1623 c-8 -8 -8 -71 0 -100 11 -39 24 -14 24 42 0 51 -9 73 -24
58z"/>
<path d="M1720 1580 c0 -22 5 -40 10 -40 6 0 10 18 10 40 0 22 -4 40 -10 40
-5 0 -10 -18 -10 -40z"/>
<path d="M1770 1496 c0 -115 8 -154 25 -125 10 15 -5 249 -16 249 -5 0 -9 -56
-9 -124z"/>
<path d="M737 1483 c-12 -12 -7 -41 7 -46 22 -9 41 19 26 38 -14 16 -23 19
-33 8z"/>
<path d="M3308 1454 c-12 -4 -18 -15 -18 -34 0 -16 -4 -32 -10 -35 -6 -4 -10
-112 -10 -290 0 -244 2 -286 16 -299 12 -12 37 -16 103 -16 l89 0 5 -30 c8
-38 1 -55 -27 -68 -29 -13 -106 -4 -106 12 0 8 -13 11 -35 8 -37 -4 -50 -32
-16 -32 11 0 23 -4 26 -10 3 -5 34 -10 69 -10 53 0 66 4 85 24 13 13 25 42 28
65 l6 41 117 0 c168 0 221 28 235 124 9 55 -11 96 -59 124 l-35 21 1 143 c1
164 -4 186 -38 194 -18 5 -24 13 -24 35 l0 29 -142 0 c-79 0 -165 2 -193 4
-27 3 -58 2 -67 0z m382 -33 c0 -18 -10 -19 -162 -23 -199 -4 -218 -2 -218 23
0 18 10 19 190 19 180 0 190 -1 190 -19z m50 -66 c11 -13 8 -13 -17 -5 -16 6
-109 9 -218 8 l-190 -3 -5 -245 -6 -245 -2 253 -2 252 214 0 c177 0 216 -3
226 -15z m-122 -157 c73 -11 130 -23 127 -26 -2 -3 -65 3 -139 13 -75 9 -142
15 -151 11 -26 -9 -18 -54 13 -71 26 -15 26 -16 2 -9 -64 16 -68 104 -5 104
11 0 80 -10 153 -22z m-118 -38 c0 -5 -7 -10 -16 -10 -8 0 -12 5 -9 10 3 6 10
10 16 10 5 0 9 -4 9 -10z m325 -220 c25 -28 22 -68 -9 -99 l-26 -26 -230 -3
c-151 -1 -230 1 -230 8 0 6 71 10 198 10 235 0 242 2 242 81 0 41 3 49 18 49
11 0 27 -9 37 -20z"/>
<path d="M1290 1295 c0 -8 5 -15 10 -15 6 0 10 7 10 15 0 8 -4 15 -10 15 -5 0
-10 -7 -10 -15z"/>
<path d="M1390 1291 c-6 -12 -10 -123 -10 -298 0 -225 3 -283 14 -299 13 -17
30 -19 170 -22 145 -4 156 -5 156 -23 0 -12 20 -32 55 -55 30 -20 55 -40 55
-45 0 -4 30 -9 68 -11 63 -3 67 -4 70 -28 8 -62 24 -91 62 -110 45 -23 73 -25
119 -9 45 16 61 54 61 143 0 41 3 77 8 79 11 8 4 329 -8 341 -16 16 -317 21
-336 5 -8 -6 -14 -26 -14 -43 1 -17 -2 -71 -5 -121 -8 -106 2 -145 39 -145 32
0 36 14 36 135 0 73 -4 105 -12 108 -7 3 2 6 20 6 l32 1 0 -165 0 -165 -63 0
c-53 0 -69 5 -112 33 -54 35 -65 59 -41 85 21 25 34 554 14 592 l-14 25 -176
3 c-167 2 -178 1 -188 -17z m356 -13 c5 -8 -5 -9 -38 -5 -38 5 -49 3 -63 -13
-10 -11 -23 -20 -29 -20 -6 0 -3 5 7 11 35 20 15 29 -67 29 -76 0 -85 -2 -91
-20 -4 -11 -11 -18 -16 -14 -5 3 -7 10 -4 15 4 5 1 9 -5 9 -6 0 -8 -11 -6 -26
4 -21 3 -24 -10 -14 -15 13 -19 42 -7 53 12 13 321 8 329 -5z m-241 -27 c18
-7 17 -8 -6 -13 -17 -3 -26 0 -26 9 0 15 3 15 32 4z m205 -201 c0 -130 0 -131
-27 -156 -43 -40 -82 -56 -153 -64 -36 -4 -73 -11 -82 -15 -17 -7 -18 6 -18
179 l0 186 140 0 140 0 0 -130z m17 -52 c-2 -35 -3 -7 -3 62 0 69 1 97 3 63 2
-35 2 -91 0 -125z m241 -65 c2 -9 -10 -13 -42 -13 -35 0 -46 4 -46 16 0 12 9
14 42 12 23 -2 43 -9 46 -15z m230 -11 c2 -15 -5 -32 -17 -43 -12 -11 -21 -26
-21 -34 0 -7 -9 -17 -20 -20 -11 -3 -20 -15 -20 -26 0 -10 9 -24 20 -31 11 -7
20 -23 20 -35 0 -12 4 -23 10 -25 5 -2 13 -61 16 -133 6 -122 5 -131 -13 -148
-52 -46 -152 -25 -179 38 -25 60 -13 75 58 75 80 0 76 24 -5 28 l-57 3 0 37
c0 20 -3 88 -7 150 l-6 112 31 0 c24 0 30 -4 26 -15 -4 -8 -11 -12 -18 -8 -6
3 -6 1 2 -8 8 -8 12 -45 12 -102 0 -66 3 -88 13 -85 9 4 13 45 15 152 l3 147
67 -3 c62 -3 67 -5 70 -26z m-288 -82 c0 -35 -25 -41 -33 -8 -7 26 -1 38 19
38 9 0 14 -11 14 -30z m286 3 c-10 -10 -19 5 -10 18 6 11 8 11 12 0 2 -7 1
-15 -2 -18z m14 -37 c0 -16 -51 -29 -64 -16 -14 14 4 30 35 30 18 0 29 -5 29
-14z m-480 -18 c0 -5 -72 -8 -160 -8 -88 0 -160 3 -160 8 0 4 72 7 160 7 88 0
160 -3 160 -7z m180 -8 c0 -13 -7 -20 -20 -20 -13 0 -20 7 -20 20 0 13 7 20
20 20 13 0 20 -7 20 -20z m290 -35 c0 -8 -4 -15 -10 -15 -5 0 -10 7 -10 15 0
8 5 15 10 15 6 0 10 -7 10 -15z m-290 -15 c0 -21 -24 -28 -35 -10 -8 14 3 30
21 30 8 0 14 -9 14 -20z"/>
<path d="M990 1180 c0 -5 16 -10 35 -10 19 0 35 5 35 10 0 6 -16 10 -35 10
-19 0 -35 -4 -35 -10z"/>
<path d="M1080 1181 c0 -6 14 -11 30 -11 29 0 30 -2 30 -43 0 -35 -7 -53 -36
-90 -26 -33 -34 -52 -29 -66 14 -45 62 -15 70 43 6 36 11 45 31 49 35 6 57
-24 62 -87 4 -45 1 -57 -17 -75 -18 -18 -33 -21 -111 -21 -71 0 -92 3 -96 15
-7 18 -37 20 -32 3 9 -25 54 -38 135 -38 72 0 85 3 110 24 25 22 28 31 28 84
0 66 -21 106 -66 129 -17 9 -25 23 -29 50 -5 36 -7 38 -42 41 -22 2 -38 -1
-38 -7z"/>
<path d="M1000 1140 c0 -5 11 -10 25 -10 14 0 25 5 25 10 0 6 -11 10 -25 10
-14 0 -25 -4 -25 -10z"/>
<path d="M1310 1130 c0 -5 5 -10 10 -10 6 0 10 5 10 10 0 6 -4 10 -10 10 -5 0
-10 -4 -10 -10z"/>
<path d="M2390 1001 c-6 -12 -10 -116 -10 -269 0 -228 2 -250 18 -265 15 -14
42 -17 153 -17 74 0 141 5 149 10 13 8 15 51 18 266 3 230 1 258 -14 275 -15
17 -33 19 -160 19 -131 0 -144 -2 -154 -19z m298 -13 c8 -8 11 -42 10 -97 l-2
-86 -5 70 -6 70 -128 3 c-76 1 -135 -2 -147 -8 -17 -9 -20 -8 -20 9 0 50 3 51
149 51 93 0 141 -4 149 -12z m-20 -203 l-3 -145 -31 -31 c-31 -31 -38 -33
-159 -41 l-50 -3 -3 183 -2 182 126 0 125 0 -3 -145z m21 -301 c-9 -11 -41
-14 -138 -14 -69 0 -131 4 -137 8 -6 4 -14 21 -18 37 l-7 30 151 -3 150 -3 2
33 c1 18 3 9 5 -20 3 -32 -1 -59 -8 -68z"/>
<path d="M2533 973 c9 -2 25 -2 35 0 9 3 1 5 -18 5 -19 0 -27 -2 -17 -5z"/>
<path d="M2523 514 c-3 -8 -1 -20 5 -26 16 -16 42 -2 42 22 0 24 -38 28 -47 4z"/>
<path d="M3960 1010 c0 -5 5 -10 11 -10 5 0 7 5 4 10 -3 6 -8 10 -11 10 -2 0
-4 -4 -4 -10z"/>
<path d="M2985 980 c-11 -5 -36 -9 -56 -9 -40 -1 -89 -33 -89 -58 0 -9 5 -33
12 -54 l11 -39 162 0 163 0 11 46 c10 39 9 50 -4 70 -15 24 -23 27 -100 39
-82 14 -90 14 -110 5z m79 -16 c22 -9 20 -20 -10 -58 l-27 -33 -28 32 c-32 36
-36 51 -16 58 18 8 63 8 81 1z m-74 -76 c28 -39 29 -43 13 -49 -23 -9 -98 -11
-106 -3 -6 6 49 94 58 94 3 0 19 -19 35 -42z m160 -39 c0 -13 -38 -20 -75 -13
-42 8 -43 16 -9 61 l26 34 29 -37 c16 -20 29 -40 29 -45z"/>
<path d="M2286 909 c-30 -82 -37 -393 -12 -454 35 -84 56 -12 56 192 0 141
-12 245 -31 267 -5 5 -10 3 -13 -5z m23 -76 c1 -7 -6 -13 -14 -13 -16 0 -19
17 -8 46 6 16 7 16 14 -2 4 -10 8 -25 8 -31z m-8 -125 c0 -51 1 -122 2 -157 1
-44 -2 -65 -10 -68 -10 -4 -13 32 -13 156 0 101 4 161 10 161 6 0 10 -38 11
-92z"/>
<path d="M2836 744 c-9 -8 -16 -24 -16 -34 0 -45 21 -50 199 -50 176 0 191 4
191 46 0 49 -19 54 -195 54 -135 0 -166 -3 -179 -16z m349 -22 c0 -10 -41 -14
-172 -17 -138 -4 -173 -2 -173 9 0 7 3 16 7 20 4 3 81 5 172 4 127 -2 166 -6
166 -16z"/>
<path d="M3378 703 c7 -3 16 -2 19 1 4 3 -2 6 -13 5 -11 0 -14 -3 -6 -6z"/>
<path d="M3583 703 c13 -3 17 -11 13 -25 -3 -15 -2 -18 6 -10 15 15 2 42 -19
41 -17 -1 -17 -2 0 -6z"/>
<path d="M3560 681 c0 -6 4 -13 10 -16 6 -3 7 1 4 9 -7 18 -14 21 -14 7z"/>
<path d="M2773 604 c-15 -7 -17 -40 -4 -49 5 -3 12 -19 16 -35 19 -88 144 -94
182 -8 9 21 20 38 23 38 4 0 14 -18 23 -40 16 -41 45 -60 92 -60 45 0 73 21
94 71 24 54 25 63 11 54 -5 -3 -10 1 -10 10 0 10 5 14 13 9 9 -5 9 -4 0 6 -8
9 -33 10 -95 6 -105 -9 -143 -9 -248 -2 -47 3 -91 3 -97 0z m17 -18 c0 -3 -4
-8 -10 -11 -5 -3 -10 -1 -10 4 0 6 5 11 10 11 6 0 10 -2 10 -4z m100 -8 c-19
-5 -46 -15 -60 -20 l-25 -11 25 -6 c21 -6 22 -8 8 -14 -18 -7 -25 -27 -9 -27
4 0 25 14 46 30 37 29 85 40 85 20 0 -20 -29 -68 -45 -74 -27 -10 -70 -7 -88
7 -24 17 -35 86 -16 98 8 5 37 8 64 8 l50 -1 -35 -10z m290 -3 c16 -19 -4 -81
-30 -95 -51 -27 -130 9 -130 60 0 29 29 25 78 -10 23 -16 46 -30 52 -30 18 0
10 15 -17 33 l-28 17 33 -6 c57 -11 35 14 -23 26 -30 6 -55 13 -55 16 0 2 24
4 54 4 35 0 58 -5 66 -15z"/>
<path d="M1608 573 c7 -3 16 -2 19 1 4 3 -2 6 -13 5 -11 0 -14 -3 -6 -6z"/>
<path d="M3465 560 c4 -6 11 -8 16 -5 14 9 11 15 -7 15 -8 0 -12 -5 -9 -10z"/>
<path d="M3288 548 c16 -8 28 -8 45 0 19 9 17 11 -23 11 -40 0 -42 -2 -22 -11z"/>
</g>
</svg>
